<svg xmlns="http://www.w3.org/2000/svg" viewBox="0 0 1280 720" width="1280" height="720">
    <defs>
        <linearGradient id="coverAccent" x1="0%" y1="0%" x2="100%" y2="100%">
            <stop offset="0%" stop-color="#2E3F55" />
            <stop offset="100%" stop-color="#AE6339" />
        </linearGradient>
        <linearGradient id="bottomBar" x1="0%" y1="0%" x2="100%" y2="0%">
            <stop offset="0%" stop-color="#2E3F55" />
            <stop offset="60%" stop-color="#AE6339" />
            <stop offset="100%" stop-color="#D4B5B2" />
        </linearGradient>
        <filter id="softShadow" x="-15%" y="-15%" width="140%" height="140%">
            <feGaussianBlur in="SourceAlpha" stdDeviation="8" />
            <feOffset dx="0" dy="4" result="offsetBlur" />
            <feFlood flood-color="#2E3F55" flood-opacity="0.08" result="shadowColor" />
            <feComposite in="shadowColor" in2="offsetBlur" operator="in" result="shadow" />
            <feMerge><feMergeNode in="shadow" /><feMergeNode in="SourceGraphic" /></feMerge>
        </filter>
    </defs>
    
    <rect width="1280" height="720" fill="#EFE6DD" />
    
    <circle cx="1100" cy="150" r="200" fill="#2E3F55" fill-opacity="0.04" />
    <circle cx="1150" cy="200" r="120" fill="#AE6339" fill-opacity="0.06" />
    <circle cx="200" cy="600" r="150" fill="#D4B5B2" fill-opacity="0.08" />
    
    <rect x="0" y="0" width="1280" height="8" fill="url(#bottomBar)" />
    
    <rect x="0" y="0" width="8" height="720" fill="url(#coverAccent)" />
    
    <g id="badge">
        <path fill="#2E3F55" d="M90,80 H130 A10,10 0 0 1 140,90 V130 A10,10 0 0 1 130,140 H90 A10,10 0 0 1 80,130 V90 A10,10 0 0 1 90,80 Z" />
        
  <g transform="translate(88.0, 88.0) scale(2.75)" fill="#EFE6DD">
    <path d="M6.94864 0.15391C8.52047 0.677853 9.36995 2.37681 8.84601 3.94864L7.66225 7.49992L1.97015 5.60256L3.15391 2.05128C3.67785 0.479446 5.37681 -0.370034 6.94864 0.15391Z" />
    <path d="M7.02979 9.39729L5.84601 12.9486C5.32207 14.5205 3.62311 15.37 2.05128 14.846C0.479446 14.3221 -0.370034 12.6231 0.15391 11.0513L1.33769 7.49992L7.02979 9.39729Z" />
    <path d="M12.5 15C14.433 15 16 13.433 16 11.5C16 9.567 14.433 8 12.5 8C10.567 8 9 9.567 9 11.5C9 13.433 10.567 15 12.5 15Z" />
  </g>
    </g>
    <text x="155" y="105" font-family="Georgia, SimSun, serif" font-size="18" font-weight="bold" fill="#2E3F55">河南工业大学</text>
    <text x="155" y="128" font-family="Georgia, SimSun, serif" font-size="14" fill="#6B7B8D">Henan University of Technology</text>
    
    <line x1="80" y1="155" x2="520" y2="155" stroke="#D4B5B2" stroke-width="1.5" />
    
    <text font-weight="bold" fill="#2E3F55" font-size="44" font-family="Georgia, SimSun, serif" x="80" y="280">差分隐私保护的</text><text font-weight="bold" fill="#2E3F55" font-size="44" font-family="Georgia, SimSun, serif" x="80" y="338">AI驱动个性化医疗</text><text font-weight="bold" fill="#2E3F55" font-size="44" font-family="Georgia, SimSun, serif" x="80" y="396">用药推荐系统</text><path fill="#AE6339" d="M82,410 H158 A2,2 0 0 1 160,412 V412 A2,2 0 0 1 158,414 H82 A2,2 0 0 1 80,412 V412 A2,2 0 0 1 82,410 Z" />
    
    <text x="80" y="460" font-family="Georgia, SimSun, serif" font-size="22" fill="#6B7B8D">Differential Privacy-Protected AI-Powered</text>
    <text x="80" y="490" font-family="Georgia, SimSun, serif" font-size="22" fill="#6B7B8D">Personalized Medical Drug Recommendation System</text>
    
    <g id="info">
        <path fill="#FFFFFF" fill-opacity="0.6" stroke="#D4B5B2" stroke-width="1" d="M92,570 H568 A12,12 0 0 1 580,582 V658 A12,12 0 0 1 568,670 H92 A12,12 0 0 1 80,658 V582 A12,12 0 0 1 92,570 Z" />
        <text x="110" y="605" font-family="Georgia, SimSun, serif" font-size="16" font-weight="bold" fill="#2E3F55">本科毕业设计答辩</text>
        <text x="110" y="635" font-family="Georgia, SimSun, serif" font-size="15" fill="#6B7B8D">答辩人：晋修慧</text>
        <line x1="280" y1="590" x2="280" y2="650" stroke="#D4B5B2" stroke-width="1" />
        <text x="310" y="620" font-family="Georgia, SimSun, serif" font-size="15" fill="#6B7B8D">2026年5月</text>
    </g>
    
    <g id="right-decor" transform="translate(820, 250)">
        <path fill="#2E3F55" fill-opacity="0.05" stroke="#2E3F55" stroke-opacity="0.1" stroke-width="1.5" d="M20,0 H360 A20,20 0 0 1 380,20 V260 A20,20 0 0 1 360,280 H20 A20,20 0 0 1 0,260 V20 A20,20 0 0 1 20,0 Z" />
        
        
  <g transform="translate(30.0, 30.0) scale(5.0)" fill="#2E3F55">
    <path d="M4.35009 13.3929L8 16L11.6499 13.3929C13.7523 11.8912 15 9.46667 15 6.88306V3L8 0L1 3V6.88306C1 9.46667 2.24773 11.8912 4.35009 13.3929Z" />
  </g>
        
        
  <g transform="translate(160.0, 60.0) scale(3.75)" fill="#AE6339">
    <path d="M9 7L10 0H8L2 7V9H7L6 16H8L14 9L14 7H9Z" />
  </g>
        
        
  <g transform="translate(270.0, 30.0) scale(4.375)" fill="#AE6339">
    <path d="M6.94864 0.15391C8.52047 0.677853 9.36995 2.37681 8.84601 3.94864L7.66225 7.49992L1.97015 5.60256L3.15391 2.05128C3.67785 0.479446 5.37681 -0.370034 6.94864 0.15391Z" />
    <path d="M7.02979 9.39729L5.84601 12.9486C5.32207 14.5205 3.62311 15.37 2.05128 14.846C0.479446 14.3221 -0.370034 12.6231 0.15391 11.0513L1.33769 7.49992L7.02979 9.39729Z" />
    <path d="M12.5 15C14.433 15 16 13.433 16 11.5C16 9.567 14.433 8 12.5 8C10.567 8 9 9.567 9 11.5C9 13.433 10.567 15 12.5 15Z" />
  </g>
        
        
  <g transform="translate(50.0, 160.0) scale(3.75)" fill="#D4B5B2">
    <path d="M16 1H12V15H16V1Z" />
    <path d="M6 5H10V15H6V5Z" />
    <path d="M0 9H4V15H0V9Z" />
  </g>
        
        
  <g transform="translate(170.0, 170.0) scale(3.4375)" fill="#2E3F55">
    <path d="M1 5V3L8 0L15 3V5L8 8L1 5Z" />
    <path d="M8 16L1 13V11L8 14L15 11V13L8 16Z" />
    <path d="M1 9L8 12L15 9V7L8 10L1 7V9Z" />
  </g>
        
        
  <g transform="translate(270.0, 155.0) scale(4.0625)" fill="#D4B5B2">
    <path fill-rule="evenodd" clip-rule="evenodd" d="M8 4C5.79086 4 4 5.79086 4 8C4 10.2091 5.79086 12 8 12C10.2091 12 12 10.2091 12 8C12 5.79086 10.2091 4 8 4ZM6 8C6 6.89543 6.89543 6 8 6C9.10457 6 10 6.89543 10 8C10 9.10457 9.10457 10 8 10C6.89543 10 6 9.10457 6 8Z" />
    <path fill-rule="evenodd" clip-rule="evenodd" d="M8 0C3.58172 0 0 3.58172 0 8C0 12.4183 3.58172 16 8 16C12.4183 16 16 12.4183 16 8C16 3.58172 12.4183 0 8 0ZM2 8C2 4.68629 4.68629 2 8 2C11.3137 2 14 4.68629 14 8C14 11.3137 11.3137 14 8 14C4.68629 14 2 11.3137 2 8Z" />
  </g>
    </g>
    
    <rect x="0" y="712" width="1280" height="8" fill="url(#bottomBar)" />
</svg>