<svg xmlns="http://www.w3.org/2000/svg" viewBox="0 0 1280 720" width="1280" height="720">
    <defs>
        <linearGradient id="topAccent" x1="0%" y1="0%" x2="100%" y2="0%">
            <stop offset="0%" stop-color="#2E3F55" />
            <stop offset="100%" stop-color="#AE6339" />
        </linearGradient>
        <filter id="cardShadow" x="-15%" y="-15%" width="130%" height="130%">
            <feGaussianBlur in="SourceAlpha" stdDeviation="4" />
            <feOffset dx="0" dy="2" result="offsetblur" />
            <feFlood flood-color="#2E3F55" flood-opacity="0.06" result="shadowColor" />
            <feComposite in="shadowColor" in2="offsetblur" operator="in" result="shadow" />
            <feMerge><feMergeNode in="shadow" /><feMergeNode in="SourceGraphic" /></feMerge>
        </filter>
    </defs>
    
    <rect width="1280" height="720" fill="#EFE6DD" />
    
    <rect x="0" y="0" width="1280" height="6" fill="url(#topAccent)" />
    
    <rect x="0" y="0" width="6" height="720" fill="#2E3F55" />
    
    <g id="header">
        <path fill="#AE6339" d="M63,40 H63 A3,3 0 0 1 66,43 V73 A3,3 0 0 1 63,76 H63 A3,3 0 0 1 60,73 V43 A3,3 0 0 1 63,40 Z" />
        <text x="80" y="66" font-family="Georgia, SimSun, serif" font-size="32" font-weight="bold" fill="#2E3F55">研究框架</text>
        <text x="80" y="90" font-family="Georgia, SimSun, serif" font-size="14" fill="#6B7B8D" letter-spacing="1">RESEARCH FRAMEWORK</text>
    </g>
    
    <g id="toc-01">
        <path fill="#FFFFFF" stroke="#D4B5B2" stroke-width="1" filter="url(#cardShadow)" d="M90,130 H630 A10,10 0 0 1 640,140 V192 A10,10 0 0 1 630,202 H90 A10,10 0 0 1 80,192 V140 A10,10 0 0 1 90,130 Z" />
        <path fill="#2E3F55" d="M84,130 H84 A4,4 0 0 1 88,134 V198 A4,4 0 0 1 84,202 H84 A4,4 0 0 1 80,198 V134 A4,4 0 0 1 84,130 Z" />
        <text x="110" y="158" font-family="Georgia, SimSun, serif" font-size="14" font-weight="bold" fill="#AE6339">01</text>
        
  <g transform="translate(140.0, 142.0) scale(2.0)" fill="#2E3F55">
    <path d="M0 2H3.58579C4.49129 2 5.35971 2.35971 6 3C6.64029 3.64029 7 4.50871 7 5.41421V11H9V5.41421C9 4.50871 9.35971 3.64029 10 3C10.6403 2.35971 11.5087 2 12.4142 2H16V13H11L9 15H7L5 13H0V2Z" />
  </g>
        <text x="184" y="163" font-family="Georgia, SimSun, serif" font-size="20" font-weight="bold" fill="#2E3F55">研究背景与意义</text>
        <text x="184" y="185" font-family="Georgia, SimSun, serif" font-size="13" fill="#6B7B8D">医疗用药安全与隐私保护的双重挑战</text>
    </g>
    
    <g id="toc-02">
        <path fill="#FFFFFF" stroke="#D4B5B2" stroke-width="1" filter="url(#cardShadow)" d="M690,130 H1230 A10,10 0 0 1 1240,140 V192 A10,10 0 0 1 1230,202 H690 A10,10 0 0 1 680,192 V140 A10,10 0 0 1 690,130 Z" />
        <path fill="#AE6339" d="M684,130 H684 A4,4 0 0 1 688,134 V198 A4,4 0 0 1 684,202 H684 A4,4 0 0 1 680,198 V134 A4,4 0 0 1 684,130 Z" />
        <text x="710" y="158" font-family="Georgia, SimSun, serif" font-size="14" font-weight="bold" fill="#AE6339">02</text>
        
  <g transform="translate(740.0, 142.0) scale(2.0)" fill="#2E3F55">
    <path d="M10 0H6V3H10V0Z" />
    <path d="M4 2H2V16H14V2H12V5H4V2Z" />
  </g>
        <text x="784" y="163" font-family="Georgia, SimSun, serif" font-size="20" font-weight="bold" fill="#2E3F55">系统需求分析</text>
        <text x="784" y="185" font-family="Georgia, SimSun, serif" font-size="13" fill="#6B7B8D">功能、非功能与安全三层需求</text>
    </g>
    
    <g id="toc-03">
        <path fill="#FFFFFF" stroke="#D4B5B2" stroke-width="1" filter="url(#cardShadow)" d="M90,222 H630 A10,10 0 0 1 640,232 V284 A10,10 0 0 1 630,294 H90 A10,10 0 0 1 80,284 V232 A10,10 0 0 1 90,222 Z" />
        <path fill="#2E3F55" d="M84,222 H84 A4,4 0 0 1 88,226 V290 A4,4 0 0 1 84,294 H84 A4,4 0 0 1 80,290 V226 A4,4 0 0 1 84,222 Z" />
        <text x="110" y="250" font-family="Georgia, SimSun, serif" font-size="14" font-weight="bold" fill="#AE6339">03</text>
        
  <g transform="translate(140.0, 234.0) scale(2.0)" fill="#2E3F55">
    <path d="M1 5V3L8 0L15 3V5L8 8L1 5Z" />
    <path d="M8 16L1 13V11L8 14L15 11V13L8 16Z" />
    <path d="M1 9L8 12L15 9V7L8 10L1 7V9Z" />
  </g>
        <text x="184" y="255" font-family="Georgia, SimSun, serif" font-size="20" font-weight="bold" fill="#2E3F55">四层推荐架构设计</text>
        <text x="184" y="277" font-family="Georgia, SimSun, serif" font-size="13" fill="#6B7B8D">KnowledgeRouter → SafetyFilter → RuleMarker → DeepFM</text>
    </g>
    
    <g id="toc-04">
        <path fill="#FFFFFF" stroke="#D4B5B2" stroke-width="1" filter="url(#cardShadow)" d="M690,222 H1230 A10,10 0 0 1 1240,232 V284 A10,10 0 0 1 1230,294 H690 A10,10 0 0 1 680,284 V232 A10,10 0 0 1 690,222 Z" />
        <path fill="#AE6339" d="M684,222 H684 A4,4 0 0 1 688,226 V290 A4,4 0 0 1 684,294 H684 A4,4 0 0 1 680,290 V226 A4,4 0 0 1 684,222 Z" />
        <text x="710" y="250" font-family="Georgia, SimSun, serif" font-size="14" font-weight="bold" fill="#AE6339">04</text>
        
  <g transform="translate(740.0, 234.0) scale(2.0)" fill="#2E3F55">
    <path d="M4.35009 13.3929L8 16L11.6499 13.3929C13.7523 11.8912 15 9.46667 15 6.88306V3L8 0L1 3V6.88306C1 9.46667 2.24773 11.8912 4.35009 13.3929Z" />
  </g>
        <text x="784" y="255" font-family="Georgia, SimSun, serif" font-size="20" font-weight="bold" fill="#2E3F55">差分隐私机制</text>
        <text x="784" y="277" font-family="Georgia, SimSun, serif" font-size="13" fill="#6B7B8D">DP噪声仅作用于评分层，临床安全不受影响</text>
    </g>
    
    <g id="toc-05">
        <path fill="#FFFFFF" stroke="#D4B5B2" stroke-width="1" filter="url(#cardShadow)" d="M90,314 H630 A10,10 0 0 1 640,324 V376 A10,10 0 0 1 630,386 H90 A10,10 0 0 1 80,376 V324 A10,10 0 0 1 90,314 Z" />
        <path fill="#2E3F55" d="M84,314 H84 A4,4 0 0 1 88,318 V382 A4,4 0 0 1 84,386 H84 A4,4 0 0 1 80,382 V318 A4,4 0 0 1 84,314 Z" />
        <text x="110" y="342" font-family="Georgia, SimSun, serif" font-size="14" font-weight="bold" fill="#AE6339">05</text>
        
  <g transform="translate(140.0, 326.0) scale(2.0)" fill="#2E3F55">
    <path d="M9 7L10 0H8L2 7V9H7L6 16H8L14 9L14 7H9Z" />
  </g>
        <text x="184" y="347" font-family="Georgia, SimSun, serif" font-size="20" font-weight="bold" fill="#2E3F55">DeepFM模型设计</text>
        <text x="184" y="369" font-family="Georgia, SimSun, serif" font-size="13" fill="#6B7B8D">FM交叉 + Deep高阶 + 连续特征旁路</text>
    </g>
    
    <g id="toc-06">
        <path fill="#FFFFFF" stroke="#D4B5B2" stroke-width="1" filter="url(#cardShadow)" d="M690,314 H1230 A10,10 0 0 1 1240,324 V376 A10,10 0 0 1 1230,386 H690 A10,10 0 0 1 680,376 V324 A10,10 0 0 1 690,314 Z" />
        <path fill="#AE6339" d="M684,314 H684 A4,4 0 0 1 688,318 V382 A4,4 0 0 1 684,386 H684 A4,4 0 0 1 680,382 V318 A4,4 0 0 1 684,314 Z" />
        <text x="710" y="342" font-family="Georgia, SimSun, serif" font-size="14" font-weight="bold" fill="#AE6339">06</text>
        
  <g transform="translate(740.0, 326.0) scale(2.0)" fill="#2E3F55">
    <path fill-rule="evenodd" clip-rule="evenodd" d="M15 1H1V15H15V1ZM6 5L7.41421 6.41421L5.82843 8L7.41421 9.58579L6 11L3 8L6 5ZM10 5L8.58579 6.41421L10.1716 8L8.58579 9.58579L10 11L13 8L10 5Z" />
  </g>
        <text x="784" y="347" font-family="Georgia, SimSun, serif" font-size="20" font-weight="bold" fill="#2E3F55">系统实现</text>
        <text x="784" y="369" font-family="Georgia, SimSun, serif" font-size="13" fill="#6B7B8D">React + Spring Boot + FastAPI 三层架构</text>
    </g>
    
    <g id="toc-07">
        <path fill="#FFFFFF" stroke="#D4B5B2" stroke-width="1" filter="url(#cardShadow)" d="M90,406 H630 A10,10 0 0 1 640,416 V468 A10,10 0 0 1 630,478 H90 A10,10 0 0 1 80,468 V416 A10,10 0 0 1 90,406 Z" />
        <path fill="#2E3F55" d="M84,406 H84 A4,4 0 0 1 88,410 V474 A4,4 0 0 1 84,478 H84 A4,4 0 0 1 80,474 V410 A4,4 0 0 1 84,406 Z" />
        <text x="110" y="434" font-family="Georgia, SimSun, serif" font-size="14" font-weight="bold" fill="#AE6339">07</text>
        
  <g transform="translate(140.0, 418.0) scale(2.0)" fill="#2E3F55">
    <path d="M16 1H12V15H16V1Z" />
    <path d="M6 5H10V15H6V5Z" />
    <path d="M0 9H4V15H0V9Z" />
  </g>
        <text x="184" y="439" font-family="Georgia, SimSun, serif" font-size="20" font-weight="bold" fill="#2E3F55">实验结果与分析</text>
        <text x="184" y="461" font-family="Georgia, SimSun, serif" font-size="13" fill="#6B7B8D">DP保护不降质，模型区分度反而提升</text>
    </g>
    
    <g id="toc-08">
        <path fill="#FFFFFF" stroke="#D4B5B2" stroke-width="1" filter="url(#cardShadow)" d="M690,406 H1230 A10,10 0 0 1 1240,416 V468 A10,10 0 0 1 1230,478 H690 A10,10 0 0 1 680,468 V416 A10,10 0 0 1 690,406 Z" />
        <path fill="#AE6339" d="M684,406 H684 A4,4 0 0 1 688,410 V474 A4,4 0 0 1 684,478 H684 A4,4 0 0 1 680,474 V410 A4,4 0 0 1 684,406 Z" />
        <text x="710" y="434" font-family="Georgia, SimSun, serif" font-size="14" font-weight="bold" fill="#AE6339">08</text>
        
  <g transform="translate(740.0, 418.0) scale(2.0)" fill="#2E3F55">
    <path fill-rule="evenodd" clip-rule="evenodd" d="M8 16C12.4183 16 16 12.4183 16 8C16 3.58172 12.4183 0 8 0C3.58172 0 0 3.58172 0 8C0 12.4183 3.58172 16 8 16ZM12.7071 5.70711L11.2929 4.29289L6.5 9.08579L4.70711 7.29289L3.29289 8.70711L6.5 11.9142L12.7071 5.70711Z" />
  </g>
        <text x="784" y="439" font-family="Georgia, SimSun, serif" font-size="20" font-weight="bold" fill="#2E3F55">研究结论与展望</text>
        <text x="784" y="461" font-family="Georgia, SimSun, serif" font-size="13" fill="#6B7B8D">安全与隐私可以兼得</text>
    </g>
    
    <g id="bottom-metrics">
        <path fill="#2E3F55" fill-opacity="0.06" stroke="#D4B5B2" stroke-width="1" d="M92,530 H1228 A12,12 0 0 1 1240,542 V668 A12,12 0 0 1 1228,680 H92 A12,12 0 0 1 80,668 V542 A12,12 0 0 1 92,530 Z" />
        <text x="660" y="560" text-anchor="middle" font-family="Georgia, SimSun, serif" font-size="13" font-weight="bold" fill="#6B7B8D" letter-spacing="1">CORE METRICS</text>
        
        <text x="220" y="600" text-anchor="middle" font-family="Georgia, SimSun, serif" font-size="36" font-weight="bold" fill="#AE6339">0.9668</text>
        <text x="220" y="625" text-anchor="middle" font-family="Georgia, SimSun, serif" font-size="13" fill="#6B7B8D">AUC-PR (No-DP)</text>
        
        <text x="520" y="600" text-anchor="middle" font-family="Georgia, SimSun, serif" font-size="36" font-weight="bold" fill="#2E7D32">0.9658</text>
        <text x="520" y="625" text-anchor="middle" font-family="Georgia, SimSun, serif" font-size="13" fill="#6B7B8D">AUC-PR (DP ε=1.0)</text>
        
        <text x="800" y="600" text-anchor="middle" font-family="Georgia, SimSun, serif" font-size="36" font-weight="bold" fill="#2E7D32">+13.3%</text>
        <text x="800" y="625" text-anchor="middle" font-family="Georgia, SimSun, serif" font-size="13" fill="#6B7B8D">Separation 提升</text>
        
        <text x="1060" y="600" text-anchor="middle" font-family="Georgia, SimSun, serif" font-size="36" font-weight="bold" fill="#2E3F55">97.0%</text>
        <text x="1060" y="625" text-anchor="middle" font-family="Georgia, SimSun, serif" font-size="13" fill="#6B7B8D">安全数据覆盖</text>
    </g>
    
    <text x="1220" y="700" font-family="Georgia, SimSun, serif" font-size="12" fill="#6B7B8D" text-anchor="end">02</text>
    
    <rect x="0" y="716" width="1280" height="4" fill="url(#topAccent)" />
</svg>