<svg xmlns="http://www.w3.org/2000/svg" viewBox="0 0 1280 720" width="1280" height="720">
    <defs>
        <linearGradient id="topAccent" x1="0%" y1="0%" x2="100%" y2="0%">
            <stop offset="0%" stop-color="#2E3F55" />
            <stop offset="100%" stop-color="#AE6339" />
        </linearGradient>
        <filter id="cardShadow" x="-15%" y="-15%" width="130%" height="130%">
            <feGaussianBlur in="SourceAlpha" stdDeviation="4" />
            <feOffset dx="0" dy="2" result="offsetblur" />
            <feFlood flood-color="#2E3F55" flood-opacity="0.06" result="shadowColor" />
            <feComposite in="shadowColor" in2="offsetblur" operator="in" result="shadow" />
            <feMerge><feMergeNode in="shadow" /><feMergeNode in="SourceGraphic" /></feMerge>
        </filter>
    </defs>
    
    <rect width="1280" height="720" fill="#EFE6DD" />
    <rect x="0" y="0" width="1280" height="6" fill="url(#topAccent)" />
    <rect x="0" y="0" width="6" height="720" fill="#2E3F55" />
    
    <g id="header">
        <path fill="#AE6339" d="M63,30 H63 A3,3 0 0 1 66,33 V59 A3,3 0 0 1 63,62 H63 A3,3 0 0 1 60,59 V33 A3,3 0 0 1 63,30 Z" />
        <text x="80" y="54" font-family="Georgia, SimSun, serif" font-size="26" font-weight="bold" fill="#2E3F55">四层推荐架构设计</text>
        <text x="80" y="74" font-family="Georgia, SimSun, serif" font-size="12" fill="#6B7B8D" letter-spacing="1">SAFETY-FIRST, PRIVACY-PROTECTED, PERSONALIZED</text>
    </g>
    
    <path fill="#2E3F55" d="M68,88 H1212 A8,8 0 0 1 1220,96 V116 A8,8 0 0 1 1212,124 H68 A8,8 0 0 1 60,116 V96 A8,8 0 0 1 68,88 Z" />
    <text x="80" y="112" font-family="Georgia, SimSun, serif" font-size="15" font-weight="bold" fill="#EFE6DD">安全优先：SafetyFilter硬排除 → RuleMarker软标记 → DeepFM个性化评分+DP噪声 | DP噪声永远不影响Layer 1</text>
    
    <g id="layer-0">
        <path fill="#6B7B8D" d="M48,142 H72 A8,8 0 0 1 80,150 V244 A8,8 0 0 1 72,252 H48 A8,8 0 0 1 40,244 V150 A8,8 0 0 1 48,142 Z" />
        <text x="60" y="205" text-anchor="middle" font-family="Georgia, SimSun, serif" font-size="18" font-weight="bold" fill="#FFFFFF">L0</text>
        <path fill="#6B7B8D" fill-opacity="0.06" stroke="#6B7B8D" stroke-width="1" stroke-dasharray="6 4" d="M106,142 H976 A10,10 0 0 1 986,152 V242 A10,10 0 0 1 976,252 H106 A10,10 0 0 1 96,242 V152 A10,10 0 0 1 106,142 Z" />
        <text x="541" y="164" text-anchor="middle" font-family="Georgia, SimSun, serif" font-size="12" font-weight="bold" fill="#6B7B8D" letter-spacing="1">LAYER 0 · 知识路由 · 语义匹配候选药物集</text>
        <g filter="url(#cardShadow)">
            <path fill="#FFFFFF" stroke="#E2E8F0" stroke-width="1" d="M122,178 H306 A8,8 0 0 1 314,186 V230 A8,8 0 0 1 306,238 H122 A8,8 0 0 1 114,230 V186 A8,8 0 0 1 122,178 Z" />
            <text x="130" y="200" font-family="Georgia, SimSun, serif" font-size="14" font-weight="bold" fill="#2E3F55">疾病语义映射</text>
            <text x="130" y="220" font-family="Georgia, SimSun, serif" font-size="12" fill="#6B7B8D">disease_mapper EN→CN</text>
        </g>
        <g filter="url(#cardShadow)">
            <path fill="#FFFFFF" stroke="#E2E8F0" stroke-width="1" d="M338,178 H522 A8,8 0 0 1 530,186 V230 A8,8 0 0 1 522,238 H338 A8,8 0 0 1 330,230 V186 A8,8 0 0 1 338,178 Z" />
            <text x="346" y="200" font-family="Georgia, SimSun, serif" font-size="14" font-weight="bold" fill="#2E3F55">适应症匹配</text>
            <text x="346" y="220" font-family="Georgia, SimSun, serif" font-size="12" fill="#6B7B8D">indication → 候选药物集</text>
        </g>
        <g filter="url(#cardShadow)">
            <path fill="#FFFFFF" stroke="#E2E8F0" stroke-width="1" d="M554,178 H738 A8,8 0 0 1 746,186 V230 A8,8 0 0 1 738,238 H554 A8,8 0 0 1 546,230 V186 A8,8 0 0 1 554,178 Z" />
            <text x="562" y="200" font-family="Georgia, SimSun, serif" font-size="14" font-weight="bold" fill="#2E3F55">药物类目过滤</text>
            <text x="562" y="220" font-family="Georgia, SimSun, serif" font-size="12" fill="#6B7B8D">drug_class筛选</text>
        </g>
    </g>
    
    <g id="layer-1">
        <path fill="#C62828" d="M48,268 H72 A8,8 0 0 1 80,276 V370 A8,8 0 0 1 72,378 H48 A8,8 0 0 1 40,370 V276 A8,8 0 0 1 48,268 Z" />
        <text x="60" y="331" text-anchor="middle" font-family="Georgia, SimSun, serif" font-size="18" font-weight="bold" fill="#FFFFFF">L1</text>
        <path fill="#C62828" fill-opacity="0.06" stroke="#C62828" stroke-width="1.5" stroke-dasharray="6 4" d="M106,268 H976 A10,10 0 0 1 986,278 V368 A10,10 0 0 1 976,378 H106 A10,10 0 0 1 96,368 V278 A10,10 0 0 1 106,268 Z" />
        <text x="541" y="290" text-anchor="middle" font-family="Georgia, SimSun, serif" font-size="12" font-weight="bold" fill="#C62828" letter-spacing="1">LAYER 1 · 安全过滤器 · 确定性硬排除（DP噪声永远不影响此层）</text>
        <g filter="url(#cardShadow)">
            <path fill="#FFFFFF" stroke="#E2E8F0" stroke-width="1" d="M122,304 H306 A8,8 0 0 1 314,312 V356 A8,8 0 0 1 306,364 H122 A8,8 0 0 1 114,356 V312 A8,8 0 0 1 122,304 Z" />
            <text x="130" y="326" font-family="Georgia, SimSun, serif" font-size="14" font-weight="bold" fill="#C62828">绝对禁忌症排除</text>
            <text x="130" y="346" font-family="Georgia, SimSun, serif" font-size="12" fill="#6B7B8D">contraindications检查</text>
        </g>
        <g filter="url(#cardShadow)">
            <path fill="#FFFFFF" stroke="#E2E8F0" stroke-width="1" d="M338,304 H522 A8,8 0 0 1 530,312 V356 A8,8 0 0 1 522,364 H338 A8,8 0 0 1 330,356 V312 A8,8 0 0 1 338,304 Z" />
            <text x="346" y="326" font-family="Georgia, SimSun, serif" font-size="14" font-weight="bold" fill="#C62828">过敏冲突排除</text>
            <text x="346" y="346" font-family="Georgia, SimSun, serif" font-size="12" fill="#6B7B8D">allergy交叉检查</text>
        </g>
        <g filter="url(#cardShadow)">
            <path fill="#FFFFFF" stroke="#E2E8F0" stroke-width="1" d="M554,304 H738 A8,8 0 0 1 746,312 V356 A8,8 0 0 1 738,364 H554 A8,8 0 0 1 546,356 V312 A8,8 0 0 1 554,304 Z" />
            <text x="562" y="326" font-family="Georgia, SimSun, serif" font-size="14" font-weight="bold" fill="#C62828">妊娠X级排除</text>
            <text x="562" y="346" font-family="Georgia, SimSun, serif" font-size="12" fill="#6B7B8D">pregnancy_cat=X</text>
        </g>
    </g>
    
    <g id="layer-2">
        <path fill="#AE6339" d="M48,394 H72 A8,8 0 0 1 80,402 V496 A8,8 0 0 1 72,504 H48 A8,8 0 0 1 40,496 V402 A8,8 0 0 1 48,394 Z" />
        <text x="60" y="457" text-anchor="middle" font-family="Georgia, SimSun, serif" font-size="18" font-weight="bold" fill="#FFFFFF">L2</text>
        <path fill="#AE6339" fill-opacity="0.06" stroke="#AE6339" stroke-width="1.5" stroke-dasharray="6 4" d="M106,394 H976 A10,10 0 0 1 986,404 V494 A10,10 0 0 1 976,504 H106 A10,10 0 0 1 96,494 V404 A10,10 0 0 1 106,394 Z" />
        <text x="541" y="416" text-anchor="middle" font-family="Georgia, SimSun, serif" font-size="12" font-weight="bold" fill="#AE6339" letter-spacing="1">LAYER 2 · 规则标记器 · 软标记不排除（添加requires_review标志）</text>
        <g filter="url(#cardShadow)">
            <path fill="#FFFFFF" stroke="#E2E8F0" stroke-width="1" d="M122,430 H306 A8,8 0 0 1 314,438 V482 A8,8 0 0 1 306,490 H122 A8,8 0 0 1 114,482 V438 A8,8 0 0 1 122,430 Z" />
            <text x="130" y="452" font-family="Georgia, SimSun, serif" font-size="14" font-weight="bold" fill="#AE6339">相对禁忌警告</text>
            <text x="130" y="472" font-family="Georgia, SimSun, serif" font-size="12" fill="#6B7B8D">relative_contraindications</text>
        </g>
        <g filter="url(#cardShadow)">
            <path fill="#FFFFFF" stroke="#E2E8F0" stroke-width="1" d="M338,430 H522 A8,8 0 0 1 530,438 V482 A8,8 0 0 1 522,490 H338 A8,8 0 0 1 330,482 V438 A8,8 0 0 1 338,430 Z" />
            <text x="346" y="452" font-family="Georgia, SimSun, serif" font-size="14" font-weight="bold" fill="#AE6339">中等交互标记</text>
            <text x="346" y="472" font-family="Georgia, SimSun, serif" font-size="12" fill="#6B7B8D">moderate_interactions</text>
        </g>
        <g filter="url(#cardShadow)">
            <path fill="#FFFFFF" stroke="#E2E8F0" stroke-width="1" d="M554,430 H738 A8,8 0 0 1 746,438 V482 A8,8 0 0 1 738,490 H554 A8,8 0 0 1 546,482 V438 A8,8 0 0 1 554,430 Z" />
            <text x="562" y="452" font-family="Georgia, SimSun, serif" font-size="14" font-weight="bold" fill="#AE6339">妊娠C/D警告</text>
            <text x="562" y="472" font-family="Georgia, SimSun, serif" font-size="12" fill="#6B7B8D">pregnancy_cat=C/D</text>
        </g>
    </g>
    
    <g id="layer-3">
        <path fill="#2E3F55" d="M48,520 H72 A8,8 0 0 1 80,528 V622 A8,8 0 0 1 72,630 H48 A8,8 0 0 1 40,622 V528 A8,8 0 0 1 48,520 Z" />
        <text x="60" y="583" text-anchor="middle" font-family="Georgia, SimSun, serif" font-size="18" font-weight="bold" fill="#FFFFFF">L3</text>
        <path fill="#2E3F55" fill-opacity="0.06" stroke="#2E3F55" stroke-width="1.5" stroke-dasharray="6 4" d="M106,520 H976 A10,10 0 0 1 986,530 V620 A10,10 0 0 1 976,630 H106 A10,10 0 0 1 96,620 V530 A10,10 0 0 1 106,520 Z" />
        <text x="541" y="542" text-anchor="middle" font-family="Georgia, SimSun, serif" font-size="12" font-weight="bold" fill="#2E3F55" letter-spacing="1">LAYER 3 · DEEPFM排序 · 安全候选集上个性化评分 + DP噪声</text>
        <g filter="url(#cardShadow)">
            <path fill="#FFFFFF" stroke="#E2E8F0" stroke-width="1" d="M122,556 H306 A8,8 0 0 1 314,564 V608 A8,8 0 0 1 306,616 H122 A8,8 0 0 1 114,608 V564 A8,8 0 0 1 122,556 Z" />
            <text x="130" y="578" font-family="Georgia, SimSun, serif" font-size="14" font-weight="bold" fill="#2E3F55">FM交叉特征</text>
            <text x="130" y="598" font-family="Georgia, SimSun, serif" font-size="12" fill="#6B7B8D">二阶交互捕获</text>
        </g>
        <g filter="url(#cardShadow)">
            <path fill="#FFFFFF" stroke="#E2E8F0" stroke-width="1" d="M338,556 H522 A8,8 0 0 1 530,564 V608 A8,8 0 0 1 522,616 H338 A8,8 0 0 1 330,608 V564 A8,8 0 0 1 338,556 Z" />
            <text x="346" y="578" font-family="Georgia, SimSun, serif" font-size="14" font-weight="bold" fill="#2E3F55">Deep高阶特征</text>
            <text x="346" y="598" font-family="Georgia, SimSun, serif" font-size="12" fill="#6B7B8D">MLP (64→32) + LayerNorm</text>
        </g>
        <g filter="url(#cardShadow)">
            <path fill="#FFFFFF" stroke="#E2E8F0" stroke-width="1" d="M554,556 H738 A8,8 0 0 1 746,564 V608 A8,8 0 0 1 738,616 H554 A8,8 0 0 1 546,608 V564 A8,8 0 0 1 554,556 Z" />
            <text x="562" y="578" font-family="Georgia, SimSun, serif" font-size="14" font-weight="bold" fill="#2E3F55">+ DP噪声注入</text>
            <text x="562" y="598" font-family="Georgia, SimSun, serif" font-size="12" fill="#6B7B8D">Laplace/Gaussian</text>
        </g>
    </g>
    
    <g id="key-principle">
        <path fill="#2E3F55" fill-opacity="0.05" stroke="#2E3F55" stroke-width="1" stroke-dasharray="4 4" d="M1022,142 H1238 A12,12 0 0 1 1250,154 V618 A12,12 0 0 1 1238,630 H1022 A12,12 0 0 1 1010,618 V154 A12,12 0 0 1 1022,142 Z" />
        <text x="1130" y="172" text-anchor="middle" font-family="Georgia, SimSun, serif" font-size="12" font-weight="bold" fill="#2E3F55" letter-spacing="1">核心原则</text>
        <line x1="1030" y1="185" x2="1230" y2="185" stroke="#D4B5B2" stroke-width="1" />
        
  <g transform="translate(1082.0, 200.0) scale(3.0)" fill="#C62828">
    <path fill-rule="evenodd" clip-rule="evenodd" d="M8 16L4.35009 13.3929C2.24773 11.8912 1 9.46667 1 6.88306V3L8 0L15 3V6.88306C15 9.46667 13.7523 11.8912 11.6499 13.3929L8 16ZM12.2071 5.70711L10.7929 4.29289L7 8.08579L5.20711 6.29289L3.79289 7.70711L7 10.9142L12.2071 5.70711Z" />
  </g>
        <text x="1130" y="268" text-anchor="middle" font-family="Georgia, SimSun, serif" font-size="13" font-weight="bold" fill="#C62828">Layer 1 安全</text>
        <text x="1130" y="288" text-anchor="middle" font-family="Georgia, SimSun, serif" font-size="13" font-weight="bold" fill="#C62828">绝对不可妥协</text>
        <text x="1130" y="312" text-anchor="middle" font-family="Georgia, SimSun, serif" font-size="12" fill="#6B7B8D">DP噪声零穿透</text>
        <line x1="1060" y1="335" x2="1200" y2="335" stroke="#D4B5B2" stroke-width="1" />
        
  <g transform="translate(1082.0, 350.0) scale(3.0)" fill="#AE6339">
    <path d="M4.35009 13.3929L8 16L11.6499 13.3929C13.7523 11.8912 15 9.46667 15 6.88306V3L8 0L1 3V6.88306C1 9.46667 2.24773 11.8912 4.35009 13.3929Z" />
  </g>
        <text x="1130" y="418" text-anchor="middle" font-family="Georgia, SimSun, serif" font-size="13" font-weight="bold" fill="#AE6339">Layer 2 标记</text>
        <text x="1130" y="438" text-anchor="middle" font-family="Georgia, SimSun, serif" font-size="13" font-weight="bold" fill="#AE6339">不排除只提醒</text>
        <line x1="1060" y1="460" x2="1200" y2="460" stroke="#D4B5B2" stroke-width="1" />
        
  <g transform="translate(1082.0, 475.0) scale(3.0)" fill="#2E3F55">
    <path d="M9 7L10 0H8L2 7V9H7L6 16H8L14 9L14 7H9Z" />
  </g>
        <text x="1130" y="543" text-anchor="middle" font-family="Georgia, SimSun, serif" font-size="13" font-weight="bold" fill="#2E3F55">Layer 3 DP噪声</text>
        <text x="1130" y="563" text-anchor="middle" font-family="Georgia, SimSun, serif" font-size="13" font-weight="bold" fill="#2E3F55">仅作用于评分</text>
        <text x="1130" y="587" text-anchor="middle" font-family="Georgia, SimSun, serif" font-size="12" fill="#6B7B8D">+ 临床安全后处理</text>
    </g>
    
    <path fill="#2E3F55" fill-opacity="0.04" stroke="#D4B5B2" stroke-width="1" stroke-dasharray="4 4" d="M50,648 H1240 A10,10 0 0 1 1250,658 V688 A10,10 0 0 1 1240,698 H50 A10,10 0 0 1 40,688 V658 A10,10 0 0 1 50,648 Z" />
    <text x="645" y="668" text-anchor="middle" font-family="Georgia, SimSun, serif" font-size="12" font-weight="bold" fill="#6B7B8D" letter-spacing="1">数据流 · 患者画像输入 → L0语义匹配 → L1安全过滤 → L2规则标记 → L3个性化排序+DP → 安全推荐输出</text>
    <text x="645" y="688" text-anchor="middle" font-family="Georgia, SimSun, serif" font-size="11" fill="#6B7B8D">覆盖1815种药物 | 安全数据：禁忌症95.3% / 交互81.5% / 综合97.0%</text>
    
    <text x="1220" y="700" font-family="Georgia, SimSun, serif" font-size="12" fill="#6B7B8D" text-anchor="end">05</text>
    <rect x="0" y="716" width="1280" height="4" fill="url(#topAccent)" />
</svg>