<svg xmlns="http://www.w3.org/2000/svg" viewBox="0 0 1280 720" width="1280" height="720">
    <defs>
        <linearGradient id="topAccent" x1="0%" y1="0%" x2="100%" y2="0%">
            <stop offset="0%" stop-color="#2E3F55" />
            <stop offset="100%" stop-color="#AE6339" />
        </linearGradient>
        <linearGradient id="barGrad1" x1="0%" y1="0%" x2="0%" y2="100%">
            <stop offset="0%" stop-color="#2E3F55" />
            <stop offset="100%" stop-color="#1a2a3d" />
        </linearGradient>
        <linearGradient id="barGrad2" x1="0%" y1="0%" x2="0%" y2="100%">
            <stop offset="0%" stop-color="#AE6339" />
            <stop offset="100%" stop-color="#8B4E2B" />
        </linearGradient>
        <linearGradient id="barGrad3" x1="0%" y1="0%" x2="0%" y2="100%">
            <stop offset="0%" stop-color="#2E7D32" />
            <stop offset="100%" stop-color="#1B5E20" />
        </linearGradient>
        <filter id="cardShadow" x="-15%" y="-15%" width="130%" height="130%">
            <feGaussianBlur in="SourceAlpha" stdDeviation="4" />
            <feOffset dx="0" dy="2" result="offsetblur" />
            <feFlood flood-color="#2E3F55" flood-opacity="0.06" result="shadowColor" />
            <feComposite in="shadowColor" in2="offsetblur" operator="in" result="shadow" />
            <feMerge><feMergeNode in="shadow" /><feMergeNode in="SourceGraphic" /></feMerge>
        </filter>
    </defs>
    
    <rect width="1280" height="720" fill="#EFE6DD" />
    <rect x="0" y="0" width="1280" height="6" fill="url(#topAccent)" />
    <rect x="0" y="0" width="6" height="720" fill="#2E3F55" />
    
    <g id="header">
        <path fill="#AE6339" d="M63,30 H63 A3,3 0 0 1 66,33 V59 A3,3 0 0 1 63,62 H63 A3,3 0 0 1 60,59 V33 A3,3 0 0 1 63,30 Z" />
        <text x="80" y="54" font-family="Georgia, SimSun, serif" font-size="26" font-weight="bold" fill="#2E3F55">实验结果与分析</text>
        <text x="80" y="74" font-family="Georgia, SimSun, serif" font-size="12" fill="#6B7B8D" letter-spacing="1">PHASE 3 EXPERIMENTS · 58,525 SAMPLES · 1,815 DRUG CANDIDATES</text>
    </g>
    
    <path fill="#2E3F55" d="M68,85 H1212 A8,8 0 0 1 1220,93 V113 A8,8 0 0 1 1212,121 H68 A8,8 0 0 1 60,113 V93 A8,8 0 0 1 68,85 Z" />
    <text x="80" y="108" font-family="Georgia, SimSun, serif" font-size="15" font-weight="bold" fill="#EFE6DD">核心发现：DP保护不降质，模型区分度反而提升 | AUC-PR持平0.966，Separation从0.75提升至0.85</text>
    
    <g id="chart-area">
        <path fill="#FFFFFF" stroke="#D4B5B2" stroke-width="1" filter="url(#cardShadow)" d="M72,140 H748 A12,12 0 0 1 760,152 V508 A12,12 0 0 1 748,520 H72 A12,12 0 0 1 60,508 V152 A12,12 0 0 1 72,140 Z" />
        <text x="80" y="168" font-family="Georgia, SimSun, serif" font-size="16" font-weight="bold" fill="#2E3F55">AUC-PR 与 Separation 对比</text>
        
        <path fill="url(#barGrad1)" d="M463,152 H471 A3,3 0 0 1 474,155 V163 A3,3 0 0 1 471,166 H463 A3,3 0 0 1 460,163 V155 A3,3 0 0 1 463,152 Z" />
        <text x="480" y="164" font-family="Microsoft YaHei, PingFang SC, Arial, sans-serif" font-size="12" fill="#6B7B8D">No-DP</text>
        <path fill="url(#barGrad2)" d="M533,152 H541 A3,3 0 0 1 544,155 V163 A3,3 0 0 1 541,166 H533 A3,3 0 0 1 530,163 V155 A3,3 0 0 1 533,152 Z" />
        <text x="550" y="164" font-family="Microsoft YaHei, PingFang SC, Arial, sans-serif" font-size="12" fill="#6B7B8D">DP ε=1.0</text>
        <path fill="url(#barGrad3)" d="M623,152 H631 A3,3 0 0 1 634,155 V163 A3,3 0 0 1 631,166 H623 A3,3 0 0 1 620,163 V155 A3,3 0 0 1 623,152 Z" />
        <text x="640" y="164" font-family="Microsoft YaHei, PingFang SC, Arial, sans-serif" font-size="12" fill="#6B7B8D">DP ε=0.5</text>
        
        <line x1="140" y1="480" x2="720" y2="480" stroke="#D4B5B2" stroke-width="1" stroke-dasharray="4,4" />
        <line x1="140" y1="420" x2="720" y2="420" stroke="#D4B5B2" stroke-width="1" stroke-dasharray="4,4" />
        <line x1="140" y1="360" x2="720" y2="360" stroke="#D4B5B2" stroke-width="1" stroke-dasharray="4,4" />
        <line x1="140" y1="300" x2="720" y2="300" stroke="#D4B5B2" stroke-width="1" stroke-dasharray="4,4" />
        <line x1="140" y1="240" x2="720" y2="240" stroke="#D4B5B2" stroke-width="1" stroke-dasharray="4,4" />
        
        <text x="130" y="484" font-family="Consolas, Courier New, monospace" font-size="12" fill="#6B7B8D" text-anchor="end">0.0</text>
        <text x="130" y="424" font-family="Consolas, Courier New, monospace" font-size="12" fill="#6B7B8D" text-anchor="end">0.2</text>
        <text x="130" y="364" font-family="Consolas, Courier New, monospace" font-size="12" fill="#6B7B8D" text-anchor="end">0.4</text>
        <text x="130" y="304" font-family="Consolas, Courier New, monospace" font-size="12" fill="#6B7B8D" text-anchor="end">0.6</text>
        <text x="130" y="244" font-family="Consolas, Courier New, monospace" font-size="12" fill="#6B7B8D" text-anchor="end">0.8</text>
        <text x="130" y="200" font-family="Consolas, Courier New, monospace" font-size="12" fill="#6B7B8D" text-anchor="end">1.0</text>
        
        <line x1="140" y1="190" x2="140" y2="480" stroke="#6B7B8D" stroke-width="1.5" />
        <line x1="140" y1="480" x2="720" y2="480" stroke="#6B7B8D" stroke-width="1.5" />
        
        
        
        <path fill="url(#barGrad1)" d="M204,200 H246 A4,4 0 0 1 250,204 V476 A4,4 0 0 1 246,480 H204 A4,4 0 0 1 200,476 V204 A4,4 0 0 1 204,200 Z" />
        <text x="225" y="193" font-family="Consolas, Courier New, monospace" font-size="11" font-weight="bold" fill="#2E3F55" text-anchor="middle">0.9668</text>
        
        <path fill="url(#barGrad2)" d="M264,200 H306 A4,4 0 0 1 310,204 V476 A4,4 0 0 1 306,480 H264 A4,4 0 0 1 260,476 V204 A4,4 0 0 1 264,200 Z" />
        <text x="285" y="193" font-family="Consolas, Courier New, monospace" font-size="11" font-weight="bold" fill="#AE6339" text-anchor="middle">0.9658</text>
        
        <path fill="url(#barGrad3)" d="M324,200 H366 A4,4 0 0 1 370,204 V476 A4,4 0 0 1 366,480 H324 A4,4 0 0 1 320,476 V204 A4,4 0 0 1 324,200 Z" />
        <text x="345" y="193" font-family="Consolas, Courier New, monospace" font-size="11" font-weight="bold" fill="#2E7D32" text-anchor="middle">0.9662</text>
        
        <text x="285" y="502" font-family="Microsoft YaHei, PingFang SC, Arial, sans-serif" font-size="14" font-weight="bold" fill="#2E3F55" text-anchor="middle">AUC-PR</text>
        
        
        <path fill="url(#barGrad1)" d="M484,262 H526 A4,4 0 0 1 530,266 V476 A4,4 0 0 1 526,480 H484 A4,4 0 0 1 480,476 V266 A4,4 0 0 1 484,262 Z" />
        <text x="505" y="255" font-family="Consolas, Courier New, monospace" font-size="11" font-weight="bold" fill="#2E3F55" text-anchor="middle">0.7506</text>
        
        <path fill="url(#barGrad2)" d="M544,233 H586 A4,4 0 0 1 590,237 V476 A4,4 0 0 1 586,480 H544 A4,4 0 0 1 540,476 V237 A4,4 0 0 1 544,233 Z" />
        <text x="565" y="218" font-family="Consolas, Courier New, monospace" font-size="11" font-weight="bold" fill="#AE6339" text-anchor="middle">0.8505</text>
        
        <path fill="url(#barGrad3)" d="M604,233 H646 A4,4 0 0 1 650,237 V476 A4,4 0 0 1 646,480 H604 A4,4 0 0 1 600,476 V237 A4,4 0 0 1 604,233 Z" />
        <text x="625" y="206" font-family="Consolas, Courier New, monospace" font-size="11" font-weight="bold" fill="#2E7D32" text-anchor="middle">0.8506</text>
        
        <text x="565" y="502" font-family="Microsoft YaHei, PingFang SC, Arial, sans-serif" font-size="14" font-weight="bold" fill="#2E3F55" text-anchor="middle">Separation</text>
    </g>
    
    <g id="findings">
        <path fill="#FFFFFF" stroke="#D4B5B2" stroke-width="1" filter="url(#cardShadow)" d="M792,140 H1208 A12,12 0 0 1 1220,152 V508 A12,12 0 0 1 1208,520 H792 A12,12 0 0 1 780,508 V152 A12,12 0 0 1 792,140 Z" />
        <text x="800" y="168" font-family="Georgia, SimSun, serif" font-size="16" font-weight="bold" fill="#2E3F55">核心发现</text>
        
        <path fill="#2E3F55" d="M816,185 H816 A16,16 0 0 1 832,201 V201 A16,16 0 0 1 816,217 H816 A16,16 0 0 1 800,201 V201 A16,16 0 0 1 816,185 Z" />
        <text x="816" y="206" text-anchor="middle" font-family="Georgia, SimSun, serif" font-size="14" font-weight="bold" fill="#FFFFFF">1</text>
        <text x="842" y="200" font-family="Microsoft YaHei, PingFang SC, Arial, sans-serif" font-size="14" font-weight="bold" fill="#2E3F55">AUC-PR基本持平</text>
        <text x="842" y="218" font-family="Microsoft YaHei, PingFang SC, Arial, sans-serif" font-size="12" fill="#6B7B8D">0.9668 → 0.9658 → 0.9662</text>
        <text x="842" y="234" font-family="Microsoft YaHei, PingFang SC, Arial, sans-serif" font-size="12" fill="#6B7B8D">DP噪声对推荐精度影响可忽略</text>
        
        <path fill="#AE6339" d="M816,255 H816 A16,16 0 0 1 832,271 V271 A16,16 0 0 1 816,287 H816 A16,16 0 0 1 800,271 V271 A16,16 0 0 1 816,255 Z" />
        <text x="816" y="276" text-anchor="middle" font-family="Georgia, SimSun, serif" font-size="14" font-weight="bold" fill="#FFFFFF">2</text>
        <text x="842" y="270" font-family="Microsoft YaHei, PingFang SC, Arial, sans-serif" font-size="14" font-weight="bold" fill="#2E3F55">Separation显著提升</text>
        <text x="842" y="288" font-family="Microsoft YaHei, PingFang SC, Arial, sans-serif" font-size="12" fill="#6B7B8D">0.7506 → 0.8505 → 0.8506</text>
        <text x="842" y="304" font-family="Microsoft YaHei, PingFang SC, Arial, sans-serif" font-size="12" fill="#AE6339" font-weight="bold">DP模型更好区分高分/低分药物</text>
        
        <path fill="#2E7D32" d="M816,325 H816 A16,16 0 0 1 832,341 V341 A16,16 0 0 1 816,357 H816 A16,16 0 0 1 800,341 V341 A16,16 0 0 1 816,325 Z" />
        <text x="816" y="346" text-anchor="middle" font-family="Georgia, SimSun, serif" font-size="14" font-weight="bold" fill="#FFFFFF">3</text>
        <text x="842" y="340" font-family="Microsoft YaHei, PingFang SC, Arial, sans-serif" font-size="14" font-weight="bold" fill="#2E3F55">安全过滤100%保留</text>
        <text x="842" y="358" font-family="Microsoft YaHei, PingFang SC, Arial, sans-serif" font-size="12" fill="#6B7B8D">SafetyFilter层DP噪声零穿透</text>
        <text x="842" y="374" font-family="Microsoft YaHei, PingFang SC, Arial, sans-serif" font-size="12" fill="#6B7B8D">所有ε值下安全过滤完全一致</text>
        
        <path fill="#2E7D32" fill-opacity="0.08" stroke="#2E7D32" stroke-width="1" d="M808,395 H1192 A8,8 0 0 1 1200,403 V447 A8,8 0 0 1 1192,455 H808 A8,8 0 0 1 800,447 V403 A8,8 0 0 1 808,395 Z" />
        <text x="820" y="420" font-family="Georgia, SimSun, serif" font-size="14" font-weight="bold" fill="#2E7D32">安全保障验证</text>
        <text x="820" y="440" font-family="Microsoft YaHei, PingFang SC, Arial, sans-serif" font-size="12" fill="#2E3F55">临床安全后处理在所有ε值下结果一致</text>
        
        <path fill="#2E3F55" fill-opacity="0.04" d="M806,465 H1194 A6,6 0 0 1 1200,471 V499 A6,6 0 0 1 1194,505 H806 A6,6 0 0 1 800,499 V471 A6,6 0 0 1 806,465 Z" />
        <text x="820" y="490" font-family="Microsoft YaHei, PingFang SC, Arial, sans-serif" font-size="12" fill="#6B7B8D">训练样本: 58,525 | 药物候选: 1,815 | embed_dim=8</text>
    </g>
    
    <path fill="#2E3F55" fill-opacity="0.04" stroke="#D4B5B2" stroke-width="1" stroke-dasharray="4,4" d="M72,540 H1208 A12,12 0 0 1 1220,552 V678 A12,12 0 0 1 1208,690 H72 A12,12 0 0 1 60,678 V552 A12,12 0 0 1 72,540 Z" />
    <text x="640" y="565" text-anchor="middle" font-family="Georgia, SimSun, serif" font-size="12" font-weight="bold" fill="#6B7B8D" letter-spacing="1">ε值与隐私-效用权衡 · EXPERIMENTAL VERIFICATION</text>
    
    <path fill="#FFFFFF" stroke="#2E3F55" stroke-width="1.5" filter="url(#cardShadow)" d="M108,580 H412 A8,8 0 0 1 420,588 V662 A8,8 0 0 1 412,670 H108 A8,8 0 0 1 100,662 V588 A8,8 0 0 1 108,580 Z" />
    <path fill="#2E3F55" d="M103,580 H417 A3,3 0 0 1 420,583 V583 A3,3 0 0 1 417,586 H103 A3,3 0 0 1 100,583 V583 A3,3 0 0 1 103,580 Z" />
    <text x="260" y="610" text-anchor="middle" font-family="Georgia, SimSun, serif" font-size="16" font-weight="bold" fill="#2E3F55">No-DP 基线</text>
    <text x="180" y="638" text-anchor="middle" font-family="Microsoft YaHei, PingFang SC, Arial, sans-serif" font-size="12" fill="#6B7B8D">AUC-PR</text>
    <text x="180" y="658" text-anchor="middle" font-family="Georgia, SimSun, serif" font-size="18" font-weight="bold" fill="#2E3F55">0.9668</text>
    <text x="340" y="638" text-anchor="middle" font-family="Microsoft YaHei, PingFang SC, Arial, sans-serif" font-size="12" fill="#6B7B8D">Separation</text>
    <text x="340" y="658" text-anchor="middle" font-family="Georgia, SimSun, serif" font-size="18" font-weight="bold" fill="#2E3F55">0.7506</text>
    <path fill="#FFFFFF" stroke="#AE6339" stroke-width="1.5" filter="url(#cardShadow)" d="M488,580 H792 A8,8 0 0 1 800,588 V662 A8,8 0 0 1 792,670 H488 A8,8 0 0 1 480,662 V588 A8,8 0 0 1 488,580 Z" />
    <path fill="#AE6339" d="M483,580 H797 A3,3 0 0 1 800,583 V583 A3,3 0 0 1 797,586 H483 A3,3 0 0 1 480,583 V583 A3,3 0 0 1 483,580 Z" />
    <text x="640" y="610" text-anchor="middle" font-family="Georgia, SimSun, serif" font-size="16" font-weight="bold" fill="#AE6339">DP ε=1.0</text>
    <text x="560" y="638" text-anchor="middle" font-family="Microsoft YaHei, PingFang SC, Arial, sans-serif" font-size="12" fill="#6B7B8D">AUC-PR</text>
    <text x="560" y="658" text-anchor="middle" font-family="Georgia, SimSun, serif" font-size="18" font-weight="bold" fill="#AE6339">0.9658</text>
    <text x="720" y="638" text-anchor="middle" font-family="Microsoft YaHei, PingFang SC, Arial, sans-serif" font-size="12" fill="#6B7B8D">Separation</text>
    <text x="720" y="658" text-anchor="middle" font-family="Georgia, SimSun, serif" font-size="18" font-weight="bold" fill="#AE6339">0.8505</text>
    <path fill="#FFFFFF" stroke="#2E7D32" stroke-width="1.5" filter="url(#cardShadow)" d="M868,580 H1172 A8,8 0 0 1 1180,588 V662 A8,8 0 0 1 1172,670 H868 A8,8 0 0 1 860,662 V588 A8,8 0 0 1 868,580 Z" />
    <path fill="#2E7D32" d="M863,580 H1177 A3,3 0 0 1 1180,583 V583 A3,3 0 0 1 1177,586 H863 A3,3 0 0 1 860,583 V583 A3,3 0 0 1 863,580 Z" />
    <text x="1020" y="610" text-anchor="middle" font-family="Georgia, SimSun, serif" font-size="16" font-weight="bold" fill="#2E7D32">DP ε=0.5</text>
    <text x="940" y="638" text-anchor="middle" font-family="Microsoft YaHei, PingFang SC, Arial, sans-serif" font-size="12" fill="#6B7B8D">AUC-PR</text>
    <text x="940" y="658" text-anchor="middle" font-family="Georgia, SimSun, serif" font-size="18" font-weight="bold" fill="#2E7D32">0.9662</text>
    <text x="1100" y="638" text-anchor="middle" font-family="Microsoft YaHei, PingFang SC, Arial, sans-serif" font-size="12" fill="#6B7B8D">Separation</text>
    <text x="1100" y="658" text-anchor="middle" font-family="Georgia, SimSun, serif" font-size="18" font-weight="bold" fill="#2E7D32">0.8506</text>
    
    <text x="1220" y="700" font-family="Georgia, SimSun, serif" font-size="12" fill="#6B7B8D" text-anchor="end">14</text>
    <rect x="0" y="716" width="1280" height="4" fill="url(#topAccent)" />
</svg>