<svg xmlns="http://www.w3.org/2000/svg" viewBox="0 0 1280 720" width="1280" height="720">
  <defs>
    <linearGradient id="titleUnderline" x1="0%" y1="0%" x2="100%" y2="0%">
      <stop offset="0%" stop-color="#00796B" />
      <stop offset="100%" stop-color="#1565C0" />
    </linearGradient>
    <radialGradient id="coverDecor" cx="80%" cy="20%" r="60%">
      <stop offset="0%" stop-color="#00796B" stop-opacity="0.08" />
      <stop offset="100%" stop-color="#00796B" stop-opacity="0" />
    </radialGradient>
    <linearGradient id="bottomBar" x1="0%" y1="0%" x2="100%" y2="0%">
      <stop offset="0%" stop-color="#00796B" />
      <stop offset="100%" stop-color="#1565C0" />
    </linearGradient>
  </defs>

  
  <rect width="1280" height="720" fill="#FFFFFF" />
  <rect width="1280" height="720" fill="url(#coverDecor)" />

  
  <rect x="0" y="0" width="1280" height="6" fill="url(#bottomBar)" />


  
  <g id="cover-title">
    <text x="120" y="200" font-family="KaiTi, Georgia, serif" font-size="42" font-weight="bold" fill="#1A1A2E">
      差分隐私保护的AI驱动的
    </text>
    <text x="120" y="260" font-family="KaiTi, Georgia, serif" font-size="42" font-weight="bold" fill="#1A1A2E">
      个性化医疗用药推荐系统
    </text>
    <text x="120" y="305" font-family="KaiTi, Georgia, serif" font-size="24" fill="#546E7A">
      的设计与实现
    </text>
    
    <path fill="url(#titleUnderline)" d="M121.50,318 H318.50 A1.50,1.50 0 0 1 320,319.50 V319.50 A1.50,1.50 0 0 1 318.50,321 H121.50 A1.50,1.50 0 0 1 120,319.50 V319.50 A1.50,1.50 0 0 1 121.50,318 Z" />
  </g>

  
  <g id="cover-badge">
    <path fill="#00796B" fill-opacity="0.1" d="M138,350 H322 A18,18 0 0 1 340,368 V368 A18,18 0 0 1 322,386 H138 A18,18 0 0 1 120,368 V368 A18,18 0 0 1 138,350 Z" />
    <text x="230" y="374" font-family="Microsoft YaHei, PingFang SC, Arial, sans-serif" font-size="16" font-weight="600" fill="#00796B" text-anchor="middle">本科毕业设计答辩</text>
  </g>

  
  <g id="cover-info">
    <text font-size="18" font-family="Microsoft YaHei, PingFang SC, Arial, sans-serif" fill="#546E7A" x="120" y="440">学　　生：晋修慧</text><text font-size="18" font-family="Microsoft YaHei, PingFang SC, Arial, sans-serif" fill="#546E7A" x="120" y="474">指导教师：侯慧莹　讲师</text><text font-size="18" font-family="Microsoft YaHei, PingFang SC, Arial, sans-serif" fill="#546E7A" x="120" y="508">院　　系：人工智能与大数据　大数据2203</text></g>

  
  <g id="cover-decor">
    
    <polygon points="1050,160 1100,130 1150,160 1150,210 1100,240 1050,210" fill="none" stroke="#00796B" stroke-width="1.5" stroke-opacity="0.2" />
    <polygon points="1000,260 1050,230 1100,260 1100,310 1050,340 1000,310" fill="#00796B" fill-opacity="0.06" stroke="#00796B" stroke-width="1.5" stroke-opacity="0.15" />
    <polygon points="1100,260 1150,230 1200,260 1200,310 1150,340 1100,310" fill="none" stroke="#1565C0" stroke-width="1.5" stroke-opacity="0.2" />
    <polygon points="1050,360 1100,330 1150,360 1150,410 1100,440 1050,410" fill="#1565C0" fill-opacity="0.06" stroke="#1565C0" stroke-width="1.5" stroke-opacity="0.15" />
    <polygon points="1150,360 1200,330 1250,360 1250,410 1200,440 1150,410" fill="none" stroke="#00796B" stroke-width="1.5" stroke-opacity="0.2" />
    <polygon points="1050,460 1100,430 1150,460 1150,510 1100,540 1050,510" fill="none" stroke="#00796B" stroke-width="1.5" stroke-opacity="0.15" />
  </g>

  
  <rect x="0" y="660" width="1280" height="60" fill="url(#bottomBar)" fill-opacity="0.06" />
  <text x="120" y="695" font-family="Microsoft YaHei, PingFang SC, Arial, sans-serif" font-size="14" fill="#90A4AE">2026年3月</text>
</svg>