<svg xmlns="http://www.w3.org/2000/svg" viewBox="0 0 1280 720" width="1280" height="720">
  <defs>
    <linearGradient id="titleUnderline" x1="0%" y1="0%" x2="100%" y2="0%">
      <stop offset="0%" stop-color="#00796B" />
      <stop offset="100%" stop-color="#1565C0" />
    </linearGradient>
    <marker id="flowArrow" markerWidth="10" markerHeight="10" refX="9" refY="5" orient="auto">
      <path d="M 0,0 L 10,5 L 0,10 Z" fill="#546E7A" />
    </marker>
  </defs>

  
  <rect width="1280" height="720" fill="#FFFFFF" />
  <rect x="0" y="0" width="1280" height="4" fill="url(#titleUnderline)" />

  
  <text x="80" y="60" font-family="KaiTi, Georgia, serif" font-size="34" font-weight="bold" fill="#1A1A2E">三层推荐安全架构</text>
  <path fill="url(#titleUnderline)" d="M81.50,72 H218.50 A1.50,1.50 0 0 1 220,73.50 V73.50 A1.50,1.50 0 0 1 218.50,75 H81.50 A1.50,1.50 0 0 1 80,73.50 V73.50 A1.50,1.50 0 0 1 81.50,72 Z" />

  
  <path fill="#FFFFFF" stroke="#C62828" stroke-width="2" d="M90,110 H410 A10,10 0 0 1 420,120 V530 A10,10 0 0 1 410,540 H90 A10,10 0 0 1 80,530 V120 A10,10 0 0 1 90,110 Z" />
  <path fill="#C62828" d="M90,110 H410 A10,10 0 0 1 420,120 V144 A10,10 0 0 1 410,154 H90 A10,10 0 0 1 80,144 V120 A10,10 0 0 1 90,110 Z" />
  <rect x="80" y="144" width="340" height="10" fill="#C62828" />
  <text x="250" y="140" font-family="Microsoft YaHei, PingFang SC, Arial, sans-serif" font-size="17" font-weight="bold" fill="#FFFFFF" text-anchor="middle">SafetyFilter 安全过滤</text>

  <text x="100" y="190" font-family="Microsoft YaHei, PingFang SC, Arial, sans-serif" font-size="16" font-weight="bold" fill="#C62828">12条硬排除规则</text>
  <text x="100" y="218" font-family="Microsoft YaHei, PingFang SC, Arial, sans-serif" font-size="14" fill="#546E7A">过敏冲突、绝对禁忌症</text>
  <text x="100" y="244" font-family="Microsoft YaHei, PingFang SC, Arial, sans-serif" font-size="14" fill="#546E7A">致命交互、妊娠X级</text>
  <text x="100" y="270" font-family="Microsoft YaHei, PingFang SC, Arial, sans-serif" font-size="14" fill="#546E7A">儿科禁忌、哺乳期L5 等</text>

  <text x="100" y="310" font-family="Microsoft YaHei, PingFang SC, Arial, sans-serif" font-size="16" font-weight="bold" fill="#FF8F00">9类软标记</text>
  <text x="100" y="338" font-family="Microsoft YaHei, PingFang SC, Arial, sans-serif" font-size="14" fill="#546E7A">相对禁忌改为"标记待审"</text>
  <text x="100" y="364" font-family="Microsoft YaHei, PingFang SC, Arial, sans-serif" font-size="14" fill="#546E7A">医生做最终判断，不自动排除</text>

  <path fill="#C62828" fill-opacity="0.08" d="M106,400 H394 A6,6 0 0 1 400,406 V436 A6,6 0 0 1 394,442 H106 A6,6 0 0 1 100,436 V406 A6,6 0 0 1 106,400 Z" />
  <text x="250" y="427" font-family="Microsoft YaHei, PingFang SC, Arial, sans-serif" font-size="14" fill="#C62828" text-anchor="middle" font-weight="bold">确定性判断，不受DP噪声影响</text>

  
  <line x1="420" y1="320" x2="470" y2="320" stroke="#546E7A" stroke-width="3" marker-end="url(#flowArrow)" />

  
  <path fill="#FFFFFF" stroke="#FF8F00" stroke-width="2" d="M490,110 H810 A10,10 0 0 1 820,120 V530 A10,10 0 0 1 810,540 H490 A10,10 0 0 1 480,530 V120 A10,10 0 0 1 490,110 Z" />
  <path fill="#FF8F00" d="M490,110 H810 A10,10 0 0 1 820,120 V144 A10,10 0 0 1 810,154 H490 A10,10 0 0 1 480,144 V120 A10,10 0 0 1 490,110 Z" />
  <rect x="480" y="144" width="340" height="10" fill="#FF8F00" />
  <text x="650" y="140" font-family="Microsoft YaHei, PingFang SC, Arial, sans-serif" font-size="17" font-weight="bold" fill="#FFFFFF" text-anchor="middle">RuleMarker 规则标记</text>

  <text x="500" y="190" font-family="Microsoft YaHei, PingFang SC, Arial, sans-serif" font-size="16" font-weight="bold" fill="#FF8F00">7种软标记规则</text>
  <text x="500" y="218" font-family="Microsoft YaHei, PingFang SC, Arial, sans-serif" font-size="14" fill="#546E7A">相对禁忌症、中等交互</text>
  <text x="500" y="244" font-family="Microsoft YaHei, PingFang SC, Arial, sans-serif" font-size="14" fill="#546E7A">妊娠C/D、肾/肝功能警告</text>
  <text x="500" y="270" font-family="Microsoft YaHei, PingFang SC, Arial, sans-serif" font-size="14" fill="#546E7A">生育力警告、数据未验证</text>

  <text x="500" y="310" font-family="Microsoft YaHei, PingFang SC, Arial, sans-serif" font-size="16" font-weight="bold" fill="#FF8F00">标记而非排除</text>
  <text x="500" y="338" font-family="Microsoft YaHei, PingFang SC, Arial, sans-serif" font-size="14" fill="#546E7A">候选药物保留参与排序</text>
  <text x="500" y="364" font-family="Microsoft YaHei, PingFang SC, Arial, sans-serif" font-size="14" fill="#546E7A">为DeepFM提供安全上下文</text>

  <path fill="#FF8F00" fill-opacity="0.08" d="M506,400 H794 A6,6 0 0 1 800,406 V436 A6,6 0 0 1 794,442 H506 A6,6 0 0 1 500,436 V406 A6,6 0 0 1 506,400 Z" />
  <text x="650" y="427" font-family="Microsoft YaHei, PingFang SC, Arial, sans-serif" font-size="14" fill="#FF8F00" text-anchor="middle" font-weight="bold">标记待审，医生可覆盖判断</text>

  
  <line x1="820" y1="320" x2="870" y2="320" stroke="#546E7A" stroke-width="3" marker-end="url(#flowArrow)" />

  
  <path fill="#FFFFFF" stroke="#1565C0" stroke-width="2" d="M890,110 H1190 A10,10 0 0 1 1200,120 V530 A10,10 0 0 1 1190,540 H890 A10,10 0 0 1 880,530 V120 A10,10 0 0 1 890,110 Z" />
  <path fill="#1565C0" d="M890,110 H1190 A10,10 0 0 1 1200,120 V144 A10,10 0 0 1 1190,154 H890 A10,10 0 0 1 880,144 V120 A10,10 0 0 1 890,110 Z" />
  <rect x="880" y="144" width="320" height="10" fill="#1565C0" />
  <text x="1040" y="140" font-family="Microsoft YaHei, PingFang SC, Arial, sans-serif" font-size="17" font-weight="bold" fill="#FFFFFF" text-anchor="middle">DeepFM 排序</text>

  <text x="900" y="190" font-family="Microsoft YaHei, PingFang SC, Arial, sans-serif" font-size="16" font-weight="bold" fill="#1565C0">个性化评分</text>
  <text x="900" y="218" font-family="Microsoft YaHei, PingFang SC, Arial, sans-serif" font-size="14" fill="#546E7A">FM特征交叉 + Deep高阶交互</text>
  <text x="900" y="244" font-family="Microsoft YaHei, PingFang SC, Arial, sans-serif" font-size="14" fill="#546E7A">+ 连续特征旁路直通输出</text>

  <text x="900" y="284" font-family="Microsoft YaHei, PingFang SC, Arial, sans-serif" font-size="16" font-weight="bold" fill="#1565C0">DP噪声仅在此层</text>
  <text x="900" y="312" font-family="Microsoft YaHei, PingFang SC, Arial, sans-serif" font-size="14" fill="#546E7A">Laplace/Gaussian噪声注入</text>
  <text x="900" y="338" font-family="Microsoft YaHei, PingFang SC, Arial, sans-serif" font-size="14" fill="#546E7A">临床阈值后处理保障安全</text>
  <text x="900" y="364" font-family="Microsoft YaHei, PingFang SC, Arial, sans-serif" font-size="14" fill="#546E7A">隐私预算追踪与预警</text>

  <path fill="#1565C0" fill-opacity="0.08" d="M906,400 H1174 A6,6 0 0 1 1180,406 V436 A6,6 0 0 1 1174,442 H906 A6,6 0 0 1 900,436 V406 A6,6 0 0 1 906,400 Z" />
  <text x="1040" y="427" font-family="Microsoft YaHei, PingFang SC, Arial, sans-serif" font-size="14" fill="#1565C0" text-anchor="middle" font-weight="bold">隐私保护与精度的平衡点</text>

  
  <path fill="#00796B" fill-opacity="0.06" d="M88,580 H1192 A8,8 0 0 1 1200,588 V622 A8,8 0 0 1 1192,630 H88 A8,8 0 0 1 80,622 V588 A8,8 0 0 1 88,580 Z" />
  <text x="640" y="610" font-family="Microsoft YaHei, PingFang SC, Arial, sans-serif" font-size="16" fill="#00796B" text-anchor="middle" font-weight="bold">设计原则：前两层确定性安全判断不受DP噪声影响，噪声仅作用于个性化排序层</text>

  
  <text x="1200" y="695" font-family="Microsoft YaHei, PingFang SC, Arial, sans-serif" font-size="12" fill="#90A4AE" text-anchor="end">05</text>
</svg>