<svg xmlns="http://www.w3.org/2000/svg" viewBox="0 0 1280 720" width="1280" height="720">
  <defs>
    <linearGradient id="titleUnderline" x1="0%" y1="0%" x2="100%" y2="0%">
      <stop offset="0%" stop-color="#00796B" />
      <stop offset="100%" stop-color="#1565C0" />
    </linearGradient>
  </defs>

  
  <rect width="1280" height="720" fill="#FFFFFF" />
  <rect x="0" y="0" width="1280" height="4" fill="url(#titleUnderline)" />

  
  <text x="80" y="60" font-family="KaiTi, Georgia, serif" font-size="34" font-weight="bold" fill="#1A1A2E">关键实现</text>
  <path fill="url(#titleUnderline)" d="M81.50,72 H178.50 A1.50,1.50 0 0 1 180,73.50 V73.50 A1.50,1.50 0 0 1 178.50,75 H81.50 A1.50,1.50 0 0 1 80,73.50 V73.50 A1.50,1.50 0 0 1 81.50,72 Z" />

  
  <path fill="#FFFFFF" stroke="#00796B" stroke-width="1.5" d="M90,105 H620 A10,10 0 0 1 630,115 V345 A10,10 0 0 1 620,355 H90 A10,10 0 0 1 80,345 V115 A10,10 0 0 1 90,105 Z" />
  <path fill="#00796B" d="M90,105 H620 A10,10 0 0 1 630,115 V135 A10,10 0 0 1 620,145 H90 A10,10 0 0 1 80,135 V115 A10,10 0 0 1 90,105 Z" />
  <rect x="80" y="137" width="550" height="8" fill="#00796B" />
  <text x="100" y="132" font-family="Microsoft YaHei, PingFang SC, Arial, sans-serif" font-size="16" font-weight="bold" fill="#FFFFFF">三角色RBAC权限控制</text>

  <text x="100" y="175" font-family="Microsoft YaHei, PingFang SC, Arial, sans-serif" font-size="15" font-weight="bold" fill="#00796B">管理员</text>
  <text x="170" y="175" font-family="Microsoft YaHei, PingFang SC, Arial, sans-serif" font-size="14" fill="#546E7A">全权限</text>
  <text x="100" y="205" font-family="Microsoft YaHei, PingFang SC, Arial, sans-serif" font-size="15" font-weight="bold" fill="#1565C0">医生</text>
  <text x="150" y="205" font-family="Microsoft YaHei, PingFang SC, Arial, sans-serif" font-size="14" fill="#546E7A">患者管理 + 推荐审核</text>
  <text x="100" y="235" font-family="Microsoft YaHei, PingFang SC, Arial, sans-serif" font-size="15" font-weight="bold" fill="#FF8F00">研究员</text>
  <text x="165" y="235" font-family="Microsoft YaHei, PingFang SC, Arial, sans-serif" font-size="14" fill="#546E7A">隐私分析 + 统计查看</text>

  <path fill="#00796B" fill-opacity="0.06" d="M106,265 H604 A6,6 0 0 1 610,271 V289 A6,6 0 0 1 604,295 H106 A6,6 0 0 1 100,289 V271 A6,6 0 0 1 106,265 Z" />
  <text x="355" y="286" font-family="Microsoft YaHei, PingFang SC, Arial, sans-serif" font-size="14" fill="#00796B" text-anchor="middle">前后端双重权限校验</text>

  
  <path fill="#FFFFFF" stroke="#1565C0" stroke-width="1.5" d="M660,105 H1190 A10,10 0 0 1 1200,115 V345 A10,10 0 0 1 1190,355 H660 A10,10 0 0 1 650,345 V115 A10,10 0 0 1 660,105 Z" />
  <path fill="#1565C0" d="M660,105 H1190 A10,10 0 0 1 1200,115 V135 A10,10 0 0 1 1190,145 H660 A10,10 0 0 1 650,135 V115 A10,10 0 0 1 660,105 Z" />
  <rect x="650" y="137" width="550" height="8" fill="#1565C0" />
  <text x="670" y="132" font-family="Microsoft YaHei, PingFang SC, Arial, sans-serif" font-size="16" font-weight="bold" fill="#FFFFFF">审核反馈闭环</text>

  <text x="670" y="175" font-family="Microsoft YaHei, PingFang SC, Arial, sans-serif" font-size="15" font-weight="bold" fill="#1565C0">FeedbackLearner 渐进式惩罚</text>
  <text x="670" y="205" font-family="Microsoft YaHei, PingFang SC, Arial, sans-serif" font-size="14" fill="#546E7A">1次拒绝 ×0.7，2次 ×0.5，3次+ ×0.3</text>
  <text x="670" y="235" font-family="Microsoft YaHei, PingFang SC, Arial, sans-serif" font-size="14" fill="#546E7A">被反复拒绝的药物权重持续衰减</text>

  <path fill="#1565C0" fill-opacity="0.06" d="M676,265 H1174 A6,6 0 0 1 1180,271 V289 A6,6 0 0 1 1174,295 H676 A6,6 0 0 1 670,289 V271 A6,6 0 0 1 676,265 Z" />
  <text x="925" y="286" font-family="Microsoft YaHei, PingFang SC, Arial, sans-serif" font-size="14" fill="#1565C0" text-anchor="middle">推荐 → 审核 → 惩罚 → 优化 → 推荐</text>

  
  <path fill="#FFFFFF" stroke="#FF8F00" stroke-width="1.5" d="M90,375 H620 A10,10 0 0 1 630,385 V615 A10,10 0 0 1 620,625 H90 A10,10 0 0 1 80,615 V385 A10,10 0 0 1 90,375 Z" />
  <path fill="#FF8F00" d="M90,375 H620 A10,10 0 0 1 630,385 V405 A10,10 0 0 1 620,415 H90 A10,10 0 0 1 80,405 V385 A10,10 0 0 1 90,375 Z" />
  <rect x="80" y="407" width="550" height="8" fill="#FF8F00" />
  <text x="100" y="402" font-family="Microsoft YaHei, PingFang SC, Arial, sans-serif" font-size="16" font-weight="bold" fill="#FFFFFF">推荐解释生成</text>

  <text x="100" y="445" font-family="Microsoft YaHei, PingFang SC, Arial, sans-serif" font-size="15" font-weight="bold" fill="#FF8F00">三维解释信息</text>
  <text x="100" y="475" font-family="Microsoft YaHei, PingFang SC, Arial, sans-serif" font-size="14" fill="#546E7A">1. 适应症匹配详情</text>
  <text x="100" y="500" font-family="Microsoft YaHei, PingFang SC, Arial, sans-serif" font-size="14" fill="#546E7A">2. 安全性分析（禁忌/交互/妊娠）</text>
  <text x="100" y="525" font-family="Microsoft YaHei, PingFang SC, Arial, sans-serif" font-size="14" fill="#546E7A">3. 推荐理由说明</text>

  <path fill="#FF8F00" fill-opacity="0.06" d="M106,550 H604 A6,6 0 0 1 610,556 V574 A6,6 0 0 1 604,580 H106 A6,6 0 0 1 100,574 V556 A6,6 0 0 1 106,550 Z" />
  <text x="355" y="571" font-family="Microsoft YaHei, PingFang SC, Arial, sans-serif" font-size="14" fill="#FF8F00" text-anchor="middle">ClinicalMatcher标准化匹配，准确率95%+</text>

  
  <path fill="#FFFFFF" stroke="#2E7D32" stroke-width="1.5" d="M660,375 H1190 A10,10 0 0 1 1200,385 V615 A10,10 0 0 1 1190,625 H660 A10,10 0 0 1 650,615 V385 A10,10 0 0 1 660,375 Z" />
  <path fill="#2E7D32" d="M660,375 H1190 A10,10 0 0 1 1200,385 V405 A10,10 0 0 1 1190,415 H660 A10,10 0 0 1 650,405 V385 A10,10 0 0 1 660,375 Z" />
  <rect x="650" y="407" width="550" height="8" fill="#2E7D32" />
  <text x="670" y="402" font-family="Microsoft YaHei, PingFang SC, Arial, sans-serif" font-size="16" font-weight="bold" fill="#FFFFFF">全字段中文翻译</text>

  <text x="670" y="445" font-family="Microsoft YaHei, PingFang SC, Arial, sans-serif" font-size="15" font-weight="bold" fill="#2E7D32">双语翻译管线</text>
  <text x="670" y="475" font-family="Microsoft YaHei, PingFang SC, Arial, sans-serif" font-size="14" fill="#546E7A">drug_translator — 药物名 EN→CN</text>
  <text x="670" y="500" font-family="Microsoft YaHei, PingFang SC, Arial, sans-serif" font-size="14" fill="#546E7A">translation_mapper — 统一映射</text>
  <text x="670" y="525" font-family="Microsoft YaHei, PingFang SC, Arial, sans-serif" font-size="14" fill="#546E7A">disease_mapper — 中文疾病→英文</text>

  <path fill="#2E7D32" fill-opacity="0.06" d="M676,550 H1174 A6,6 0 0 1 1180,556 V574 A6,6 0 0 1 1174,580 H676 A6,6 0 0 1 670,574 V556 A6,6 0 0 1 676,550 Z" />
  <text x="925" y="571" font-family="Microsoft YaHei, PingFang SC, Arial, sans-serif" font-size="14" fill="#2E7D32" text-anchor="middle">推荐结果同时返回中文 + 英文名称</text>

  
  <text x="1200" y="695" font-family="Microsoft YaHei, PingFang SC, Arial, sans-serif" font-size="12" fill="#90A4AE" text-anchor="end">09</text>
</svg>